<svg width="64" height="64" viewBox="0 0 64 64" fill="none" xmlns="http://www.w3.org/2000/svg">
<g clip-path="url(#clip0_458_6)">
<path d="M52 0H12C5.37258 0 0 5.37258 0 12V52C0 58.6274 5.37258 64 12 64H52C58.6274 64 64 58.6274 64 52V12C64 5.37258 58.6274 0 52 0Z" fill="#2E3440"/>
<path d="M16 44L24 32L32 38L40 24L48 28" stroke="#88C0D0" stroke-width="4" stroke-linecap="round" stroke-linejoin="round"/>
<path d="M16 46C17.1046 46 18 45.1046 18 44C18 42.8954 17.1046 42 16 42C14.8954 42 14 42.8954 14 44C14 45.1046 14.8954 46 16 46Z" fill="#88C0D0"/>
<path d="M24 34C25.1046 34 26 33.1046 26 32C26 30.8954 25.1046 30 24 30C22.8954 30 22 30.8954 22 32C22 33.1046 22.8954 34 24 34Z" fill="#88C0D0"/>
<path d="M32 40C33.1046 40 34 39.1046 34 38C34 36.8954 33.1046 36 32 36C30.8954 36 30 36.8954 30 38C30 39.1046 30.8954 40 32 40Z" fill="#88C0D0"/>
<path d="M40 26C41.1046 26 42 25.1046 42 24C42 22.8954 41.1046 22 40 22C38.8954 22 38 22.8954 38 24C38 25.1046 38.8954 26 40 26Z" fill="#88C0D0"/>
<path d="M48 30C49.1046 30 50 29.1046 50 28C50 26.8954 49.1046 26 48 26C46.8954 26 46 26.8954 46 28C46 29.1046 46.8954 30 48 30Z" fill="#88C0D0"/>
</g>
<defs>
<clipPath id="clip0_458_6">
<rect width="64" height="64" fill="white"/>
</clipPath>
</defs>
</svg>
